<?xml version="1.0" encoding="utf-8"?>
<!-- Svg Vector Icons : http://www.onlinewebfonts.com/icon -->
<!DOCTYPE svg PUBLIC "-//W3C//DTD SVG 1.1//EN" "http://www.w3.org/Graphics/SVG/1.1/DTD/svg11.dtd">
<svg version="1.1" xmlns="http://www.w3.org/2000/svg" xmlns:xlink="http://www.w3.org/1999/xlink" x="0px" y="0px" viewBox="0 0 1000 1000" enable-background="new 0 0 1000 1000" xml:space="preserve">
<metadata> Svg Vector Icons : http://www.onlinewebfonts.com/icon </metadata>
<g><path d="M500,990C237.1,990,23.2,770.2,23.2,500C23.2,229.8,237.1,10,500,10c262.9,0,476.8,219.8,476.8,490C976.8,770.2,762.9,990,500,990L500,990z M500,53.1C260.3,53.1,65.2,253.6,65.2,500c0,246.4,195.1,446.9,434.9,446.9c239.8,0,434.8-200.5,434.8-446.9C934.8,253.6,739.8,53.1,500,53.1L500,53.1z"/><path d="M488.2,789.9c-4.4-4.5-7-10.6-7-17.4l0-554.5c0-13.6,10.7-24.6,23.9-24.6c13.2,0,23.9,11,23.9,24.6v554.5c0,13.6-10.7,24.6-23.9,24.6C498.5,797.1,492.5,794.4,488.2,789.9L488.2,789.9z"/><path d="M218.5,512.7c-4.3-4.5-7-10.6-7-17.4c0-13.6,10.7-24.6,23.9-24.6l539.5,0c13.2,0,23.9,11,23.9,24.6c0,13.6-10.7,24.6-23.9,24.6l-539.5,0C228.7,519.9,222.8,517.1,218.5,512.7L218.5,512.7z"/></g>
</svg>