<?xml version="1.0" encoding="UTF-8" standalone="no"?>
<!-- Svg Vector Icons : http://www.onlinewebfonts.com/icon -->

<svg
   xmlns:dc="http://purl.org/dc/elements/1.1/"
   xmlns:cc="http://creativecommons.org/ns#"
   xmlns:rdf="http://www.w3.org/1999/02/22-rdf-syntax-ns#"
   xmlns:svg="http://www.w3.org/2000/svg"
   xmlns="http://www.w3.org/2000/svg"
   xmlns:sodipodi="http://sodipodi.sourceforge.net/DTD/sodipodi-0.dtd"
   xmlns:inkscape="http://www.inkscape.org/namespaces/inkscape"
   version="1.1"
   x="0px"
   y="0px"
   viewBox="0 0 1000 1000"
   enable-background="new 0 0 1000 1000"
   xml:space="preserve"
   id="svg4206"
   inkscape:version="0.91 r13725"
   sodipodi:docname="close-icon.svg"><defs
     id="defs4220" /><sodipodi:namedview
     pagecolor="#ffffff"
     bordercolor="#666666"
     borderopacity="1"
     objecttolerance="10"
     gridtolerance="10"
     guidetolerance="10"
     inkscape:pageopacity="0"
     inkscape:pageshadow="2"
     inkscape:window-width="1600"
     inkscape:window-height="876"
     id="namedview4218"
     showgrid="false"
     inkscape:zoom="0.729"
     inkscape:cx="489.02606"
     inkscape:cy="500"
     inkscape:window-x="0"
     inkscape:window-y="24"
     inkscape:window-maximized="1"
     inkscape:current-layer="svg4206" /><metadata
     id="metadata4208"> Svg Vector Icons : http://www.onlinewebfonts.com/icon <rdf:RDF><cc:Work
     rdf:about=""><dc:format>image/svg+xml</dc:format><dc:type
       rdf:resource="http://purl.org/dc/dcmitype/StillImage" /></cc:Work></rdf:RDF></metadata><path
     inkscape:connector-curvature="0"
     id="path4212"
     d="M 500,990 C 237.1,990 23.2,770.2 23.2,500 23.2,229.8 237.1,10 500,10 762.9,10 976.8,229.8 976.8,500 976.8,770.2 762.9,990 500,990 l 0,0 z M 500,53.1 C 260.3,53.1 65.2,253.6 65.2,500 65.2,746.4 260.3,946.9 500.1,946.9 739.9,946.9 934.9,746.4 934.9,500 934.8,253.6 739.8,53.1 500,53.1 l 0,0 z" /><g
     id="g4244"
     transform="matrix(0.70710678,-0.70710678,0.70710678,0.70710678,-202.23962,502.25036)"><path
       d="m 488.2,789.9 c -4.4,-4.5 -7,-10.6 -7,-17.4 l 0,-554.5 c 0,-13.6 10.7,-24.6 23.9,-24.6 13.2,0 23.9,11 23.9,24.6 l 0,554.5 c 0,13.6 -10.7,24.6 -23.9,24.6 -6.6,0 -12.6,-2.7 -16.9,-7.2 l 0,0 z"
       id="path4214"
       inkscape:connector-curvature="0" /><path
       d="m 218.5,512.7 c -4.3,-4.5 -7,-10.6 -7,-17.4 0,-13.6 10.7,-24.6 23.9,-24.6 l 539.5,0 c 13.2,0 23.9,11 23.9,24.6 0,13.6 -10.7,24.6 -23.9,24.6 l -539.5,0 c -6.7,0 -12.6,-2.8 -16.9,-7.2 l 0,0 z"
       id="path4216"
       inkscape:connector-curvature="0" /></g></svg>